# xmcd CD database file
#
# Track frame offsets:
#	150
#	82714
#	160149
#	226724
#	283711
#
# Disc length: 4045 seconds
#
# Revision: 0
# Processed by: cddbd v1.5.2PL0 Copyright (c) Steve Scherf et al.
# Submitted via: CDex 1.70beta3
#
DISCID=2c0fcb05
DTITLE=Peter Brotzmann - Solo at Dobialab
DYEAR=2010
DGENRE=Jazz
TTITLE0=dobia I
TTITLE1=dobia 2
TTITLE2=dobia 3
TTITLE3=dobia 4
TTITLE4=dobia 5
EXTD=YEAR: 2010
EXTT0=
EXTT1=
EXTT2=
EXTT3=
EXTT4=
PLAYORDER=
